<?xml version="1.0" encoding="UTF-8" standalone="no"?>
<svg width="296px" height="403px" viewBox="0 0 296 403" version="1.1" xmlns="http://www.w3.org/2000/svg" xmlns:xlink="http://www.w3.org/1999/xlink">
    <!-- Generator: Sketch 3.6.1 (26313) - http://www.bohemiancoding.com/sketch -->
    <title>BJC 2016 Vert Logo</title>
    <desc>Created with Sketch.</desc>
    <defs>
        <path id="path-1" d="M0,0 L295.021515,0 L295.021515,402.018585 L0,402.018585 L0,0 Z"></path>
    </defs>
    <g id="Page-1" stroke="none" stroke-width="1" fill="none" fill-rule="evenodd">
        <g id="BJC-2016-Vert-Logo">
            <mask id="mask-2" fill="white">
                <use xlink:href="#path-1"></use>
            </mask>
            <g id="PDF-CropBox"></g>
            <g id="Group-44" mask="url(#mask-2)">
                <path d="M282.1563,12.0234 L11.1748,12.0234 L11.1748,390.667 L284.7744,390.667 L284.7744,12.0234 L282.1563,12.0234 L282.1563,12.0234 Z" id="Fill-1" fill="#1A1918"></path>
                <path d="M295.4854,0.3525 L0.4639,0.3525 L0.4639,402.3389 L295.4854,402.3389 L295.4854,0.3203 L295.4854,0.3525 L295.4854,0.3525 Z M289.4717,6.5811 L289.4717,396.1084 L6.4766,396.1084 L6.4766,6.5811 L289.4717,6.5811 L289.4717,6.5811 Z" id="Fill-2" fill="#1A1918"></path>
                <path d="M35.8447,371.3535 C35.7231,372.8213 34.6665,376.916 29.8872,376.916 C24.9849,376.916 23.8564,372.8213 23.8564,369.8271 C23.8564,365.2266 25.6958,361.9355 30.1084,361.9355 C32.168,361.9355 35.5493,362.9502 35.8687,367.3926 L32.3877,367.3926 C32.2397,366.4561 31.7021,364.9854 30.1084,365.0928 C27.9507,365.0928 27.3862,367.4443 27.3862,369.2109 C27.3862,370.7637 27.4355,373.8369 30.0347,373.8369 C31.7754,373.8369 32.3633,372.0205 32.3633,371.3535 L35.8447,371.3535 L35.8447,371.3535 Z" id="Fill-3" fill="#FFFFFF"></path>
                <path d="M51.3491,376.916 C47.8438,376.916 44.6797,374.5615 44.6797,369.4258 C44.6797,364.2891 47.8438,361.9355 51.3491,361.9355 C54.8545,361.9355 58.0151,364.2891 58.0151,369.4258 C58.0151,374.5615 54.8545,376.916 51.3491,376.916 L51.3491,376.916 Z M51.3491,365.0928 C48.7007,365.0928 48.2109,367.6055 48.2109,369.4258 C48.2109,371.2441 48.7007,373.7588 51.3491,373.7588 C53.9961,373.7588 54.4858,371.2441 54.4858,369.4258 C54.4858,367.6055 53.9961,365.0928 51.3491,365.0928 L51.3491,365.0928 Z" id="Fill-4" fill="#FFFFFF"></path>
                <path d="M78.728,376.5391 L75.2959,376.5391 L75.2959,367.9014 C75.2959,366.8574 75.248,365.0928 73.0654,365.0928 C71.5464,365.0928 70.3691,366.2148 70.3691,368.3818 L70.3691,376.5391 L66.936,376.5391 L66.936,362.3076 L70.2227,362.3076 L70.2227,364.3965 L70.2715,364.3965 C70.7368,363.5381 71.7173,361.9355 74.1934,361.9355 C76.7432,361.9355 78.728,363.5684 78.728,366.6943 L78.728,376.5391 L78.728,376.5391 Z" id="Fill-5" fill="#FFFFFF"></path>
                <path d="M96.5601,366.6436 C96.4146,365.7324 96.1191,364.7715 94.2554,364.7715 C92.3936,364.7715 92.1475,365.5479 92.1475,366.1611 C92.1475,368.4102 100.3115,366.7773 100.3115,372.0205 C100.3115,376.166 96.6343,376.916 94.5991,376.916 C91.6328,376.916 88.4224,375.793 88.3232,371.9932 L91.8545,371.9932 C91.8545,373.1963 92.5396,374.0781 94.6973,374.0781 C96.4629,374.0781 96.8784,373.1426 96.8784,372.6074 C96.8784,370.2285 88.79,372.0205 88.79,366.6943 C88.79,364.6084 89.9902,361.9355 94.0596,361.9355 C96.6089,361.9355 99.6504,362.6309 99.9194,366.6436 L96.5601,366.6436 L96.5601,366.6436 Z" id="Fill-6" fill="#FFFFFF"></path>
                <path d="M117.3345,362.3076 L119.4678,362.3076 L119.4678,364.9854 L117.3345,364.9854 L117.3345,372.7148 C117.3345,373.5449 117.3579,373.8662 118.7554,373.8662 C118.9761,373.8662 119.2241,373.8369 119.4678,373.8125 L119.4678,376.6484 C118.9268,376.6748 118.3872,376.7012 117.8481,376.7012 L117.4058,376.7012 C114.4414,376.7012 113.9009,375.4697 113.9009,373.625 L113.9009,364.9854 L112.1382,364.9854 L112.1382,362.3076 L113.9009,362.3076 L113.9009,358.459 L117.3345,358.459 L117.3345,362.3076 L117.3345,362.3076 Z" id="Fill-7" fill="#FFFFFF"></path>
                <path d="M133.4985,362.3076 L136.7832,362.3076 L136.7832,364.7715 L136.834,364.7715 C137.543,363.3252 138.3301,361.9355 140.4121,361.9355 C140.6338,361.9355 140.854,361.9619 141.0762,361.9883 L141.0762,365.7881 C140.7803,365.7324 140.4121,365.7324 140.0947,365.7324 C137.4209,365.7324 136.9312,367.5537 136.9312,369.1309 L136.9312,376.5391 L133.4985,376.5391 L133.4985,362.3076 L133.4985,362.3076 Z" id="Fill-8" fill="#FFFFFF"></path>
                <path d="M164.6426,376.5391 L161.3574,376.5391 L161.3574,374.5352 L161.3076,374.5352 C160.5225,376.0596 159.1514,376.916 157.3369,376.916 C154.7637,376.916 152.9004,375.3096 152.9004,371.6729 L152.9004,362.3076 L156.332,362.3076 L156.332,371.1367 C156.332,373.3301 157.5098,373.7588 158.5625,373.7588 C159.6914,373.7588 161.21,373.0625 161.21,370.5215 L161.21,362.3076 L164.6426,362.3076 L164.6426,376.5391 L164.6426,376.5391 Z" id="Fill-9" fill="#FFFFFF"></path>
                <path d="M186.2373,371.3535 C186.1152,372.8213 185.0605,376.916 180.2803,376.916 C175.377,376.916 174.25,372.8213 174.25,369.8271 C174.25,365.2266 176.0898,361.9355 180.502,361.9355 C182.5596,361.9355 185.9434,362.9502 186.2627,367.3926 L182.7813,367.3926 C182.6348,366.4561 182.0957,364.9854 180.502,365.0928 C178.3447,365.0928 177.7813,367.4443 177.7813,369.2109 C177.7813,370.7637 177.8311,373.8369 180.4277,373.8369 C182.1689,373.8369 182.7568,372.0205 182.7568,371.3535 L186.2373,371.3535 L186.2373,371.3535 Z" id="Fill-10" fill="#FFFFFF"></path>
                <path d="M203.2715,362.3076 L205.4063,362.3076 L205.4063,364.9854 L203.2715,364.9854 L203.2715,372.7148 C203.2715,373.5449 203.2979,373.8662 204.6943,373.8662 C204.916,373.8662 205.1602,373.8369 205.4063,373.8125 L205.4063,376.6484 C204.8643,376.6748 204.3271,376.7012 203.7881,376.7012 L203.3457,376.7012 C200.3799,376.7012 199.8408,375.4697 199.8408,373.625 L199.8408,364.9854 L198.0742,364.9854 L198.0742,362.3076 L199.8408,362.3076 L199.8408,358.459 L203.2715,358.459 L203.2715,362.3076 L203.2715,362.3076 Z" id="Fill-11" fill="#FFFFFF"></path>
                <path d="M224.9424,360.623 L221.5098,360.623 L221.5098,357.1465 L224.9424,357.1465 L224.9424,360.623 L224.9424,360.623 Z M224.9424,362.3076 L224.9424,376.5391 L221.5098,376.5391 L221.5098,362.3076 L224.9424,362.3076 L224.9424,362.3076 Z" id="Fill-12" fill="#FFFFFF"></path>
                <path d="M244.7109,376.916 C241.2061,376.916 238.043,374.5615 238.043,369.4258 C238.043,364.2891 241.2061,361.9355 244.7109,361.9355 C248.2168,361.9355 251.3789,364.2891 251.3789,369.4258 C251.3789,374.5615 248.2168,376.916 244.7109,376.916 L244.7109,376.916 Z M244.7109,365.0928 C242.0635,365.0928 241.5742,367.6055 241.5742,369.4258 C241.5742,371.2441 242.0635,373.7588 244.7109,373.7588 C247.3584,373.7588 247.8506,371.2441 247.8506,369.4258 C247.8506,367.6055 247.3584,365.0928 244.7109,365.0928 L244.7109,365.0928 Z" id="Fill-13" fill="#FFFFFF"></path>
                <path d="M272.0928,376.5391 L268.6602,376.5391 L268.6602,367.9014 C268.6602,366.8574 268.6104,365.0928 266.4277,365.0928 C264.9072,365.0928 263.7344,366.2148 263.7344,368.3818 L263.7344,376.5391 L260.3008,376.5391 L260.3008,362.3076 L263.5859,362.3076 L263.5859,364.3965 L263.6338,364.3965 C264.1006,363.5381 265.082,361.9355 267.5566,361.9355 C270.1045,361.9355 272.0928,363.5684 272.0928,366.6943 L272.0928,376.5391 L272.0928,376.5391 Z" id="Fill-14" fill="#FFFFFF"></path>
                <path d="M126.3115,307.7686 L126.3115,333.9336 C126.3115,338.7734 124.7837,339.3955 123.4556,339.3955 C122.2192,339.3955 120.8013,338.8115 120.8013,334.2725 L120.8013,331.3174 L117.272,331.3174 L117.272,335.2861 C117.272,339.7295 118.9351,344.4746 123.5986,344.4746 C125.5273,344.4746 130.0112,343.4209 130.0112,333.6416 L130.0112,307.7686 L129.5586,307.7686 L126.3115,307.7686 L126.3115,307.7686 Z" id="Fill-15" fill="#FFFFFF"></path>
                <path d="M145.4443,306.8486 C137.1333,306.8486 134.915,318.6758 134.915,325.6631 C134.915,332.6484 137.1333,344.4746 145.4443,344.4746 C153.7529,344.4746 155.9717,332.6484 155.9717,325.6631 C155.9717,318.6758 153.7529,306.8486 145.4443,306.8486 L145.4443,306.8486 Z M145.4443,339.248 C141.4116,339.248 138.7021,333.7881 138.7021,325.6631 C138.7021,317.5361 141.4116,312.0762 145.4443,312.0762 C149.4756,312.0762 152.1836,317.5361 152.1836,325.6631 C152.1836,333.7881 149.4756,339.248 145.4443,339.248 L145.4443,339.248 Z" id="Fill-16" fill="#FFFFFF"></path>
                <path d="M174.6045,307.7686 L174.6045,322.1299 L164.7197,322.1299 L164.7197,307.7686 L161.0195,307.7686 L161.0195,343.5566 L164.7197,343.5566 L164.7197,327.3574 L174.6045,327.3574 L174.6045,343.5566 L178.3037,343.5566 L178.3037,307.7686 L177.8496,307.7686 L174.6045,307.7686 L174.6045,307.7686 Z" id="Fill-17" fill="#FFFFFF"></path>
                <path d="M198.0898,307.7686 L198.0898,333.9316 C196.709,330.1816 188.4512,307.7686 188.4512,307.7686 L184.3916,307.7686 L184.3916,343.5566 L188.0039,343.5566 L188.0039,317.3623 C189.3877,321.0547 197.8164,343.5566 197.8164,343.5566 L201.7031,343.5566 L201.7031,307.7686 L201.249,307.7686 L198.0898,307.7686 L198.0898,307.7686 Z" id="Fill-18" fill="#FFFFFF"></path>
                <path d="M219.3525,323.6572 C219.3496,323.6553 213.4492,321.3838 213.4492,321.3838 C212.3975,320.9629 211.3145,320.167 211.3145,317.4902 C211.3145,312.8955 213.6348,311.9316 215.5811,311.9316 C216.6357,311.9316 220.0869,312.4033 220.251,318.4736 L220.2637,318.9912 L223.7939,318.9912 L223.7764,318.4385 C223.5469,310.749 220.6836,306.8486 215.2656,306.8486 C209.6826,306.8486 207.7012,312.9199 207.7012,318.1191 C207.7012,322.585 209.3311,325.585 212.416,326.7969 L216.6465,328.4414 C219.9736,329.7686 220.7412,330.8223 220.7412,334.0752 C220.7412,338.7031 217.6338,339.3955 215.7832,339.3955 C214.2061,339.3955 210.5381,338.6553 210.5381,331.8037 L210.5381,331.2705 L207.0107,331.2705 L207.0107,331.8037 C207.0107,334.8174 207.2773,338.0088 209.209,340.9307 C210.3584,342.6846 212.042,344.4746 215.8115,344.4746 C219.9404,344.4746 224.3535,341.5791 224.3535,333.4482 C224.3535,326.998 221.6338,324.5635 219.3525,323.6572 L219.3525,323.6572 Z" id="Fill-19" fill="#FFFFFF"></path>
                <path d="M239.0654,306.8486 C230.7568,306.8486 228.5391,318.6758 228.5391,325.6631 C228.5391,332.6484 230.7568,344.4746 239.0654,344.4746 C247.3779,344.4746 249.5938,332.6484 249.5938,325.6631 C249.5938,318.6758 247.3779,306.8486 239.0654,306.8486 L239.0654,306.8486 Z M239.0654,339.248 C235.0352,339.248 232.3262,333.7881 232.3262,325.6631 C232.3262,317.5361 235.0352,312.0762 239.0654,312.0762 C243.0977,312.0762 245.8066,317.5361 245.8066,325.6631 C245.8066,333.7881 243.0977,339.248 239.0654,339.248 L239.0654,339.248 Z" id="Fill-20" fill="#FFFFFF"></path>
                <path d="M271.4736,307.7686 L268.3145,307.7686 L268.3145,333.9277 C266.9316,330.1758 258.6777,307.7686 258.6777,307.7686 L254.6143,307.7686 L254.6143,343.5566 L258.2285,343.5566 L258.2285,317.3584 C259.6104,321.0508 268.041,343.5566 268.041,343.5566 L271.9277,343.5566 L271.9277,307.7686 L271.4736,307.7686 L271.4736,307.7686 Z" id="Fill-21" fill="#FFFFFF"></path>
                <path d="M87.7856,320.498 L91.7476,324.0068 L104.9937,327.1758 L111.6685,343.7002 L113.0259,343.7002 L113.0259,322.084 L87.7856,320.498 L87.7856,320.498 Z" id="Fill-22" fill="#D82F32"></path>
                <path d="M71.1094,343.6543 L64.5708,343.6543 L64.5708,291.3379 L71.1094,291.3379 L71.1094,343.6543 L71.1094,343.6543 Z" id="Fill-23" fill="#FFFFFF"></path>
                <path d="M30.395,337.6035 L43.9927,337.6035 C50.6274,337.6035 53.9775,333.8877 53.9775,328.0615 C53.9775,320.7012 48.1318,319.2441 42.9424,319.2441 L30.395,319.2441 L30.395,313.4883 L41.8906,313.4883 C47.9995,313.4883 51.7437,311.4473 51.7437,305.0342 C51.7437,300.1533 49.0508,297.3848 41.958,297.3848 L30.395,297.3848 L24.0229,291.3379 L44.7817,291.3379 C53.5835,291.3379 58.1157,297.3848 58.1157,304.5254 C58.1157,307.9482 56.9985,312.7598 51.8096,315.4561 C54.897,316.8379 60.3501,319.2441 60.3501,328.207 C60.3501,336.5859 54.7666,343.6543 44.3213,343.6543 L24.0229,343.6543 L30.395,337.6035 L30.395,337.6035 Z" id="Fill-24" fill="#FFFFFF"></path>
                <path d="M79.1187,302.0527 C82.103,298.5088 86.2236,296.6523 90.7539,296.6523 C96.2769,296.6523 103.6191,298.5088 105.7876,307.4316 L112.3599,307.4316 C110.8916,295.9395 100.4727,290.5156 91.1021,290.5156 C86.3706,290.5156 82.3911,291.6973 79.1187,293.6709 L79.1187,302.0527 L79.1187,302.0527 Z" id="Fill-25" fill="#FFFFFF"></path>
                <path d="M104.6758,331.4004 C103.8594,332.7959 102.7686,334.0889 101.312,335.2686 C97.6064,338.2666 93.5488,338.5537 91.0322,338.5537 C85.5039,338.5537 81.6924,336.7119 79.1187,333.8232 L79.1187,341.7373 C81.7261,343.2656 85.3389,344.4746 90.6143,344.4746 C97.2764,344.4746 103.4028,341.501 106.8882,336.873 L104.6758,331.4004 L104.6758,331.4004 Z" id="Fill-26" fill="#FFFFFF"></path>
                <path d="M21.9746,353.083 L273.9746,353.083 L273.9746,350.6875 L21.9746,350.6875 L21.9746,353.083 L21.9746,353.083 Z" id="Fill-27" fill="#D82F32"></path>
                <path d="M77.3979,250.5801 L77.3979,233.501 L123.5215,233.501 L123.5215,228.7627 L77.3979,228.7627 L77.3979,211.6797 L123.3306,211.6797 L123.3306,206.9355 L77.3979,206.9355 L77.3979,189.6362 L76.3052,189.6362 L72.5015,189.6362 L72.5015,206.9355 L27.4087,206.9355 L27.4087,211.6797 L72.5015,211.6797 L72.5015,228.7627 L27.3926,228.7627 L27.3926,233.501 L72.5015,233.501 L72.5015,250.5801 L27.3926,250.5801 L27.3926,255.3164 L72.5015,255.3164 L72.5015,275.2734 L77.3979,275.2734 L77.3979,255.3164 L133.6646,255.3164 L133.6646,250.5801 L77.3979,250.5801 L77.3979,250.5801 Z" id="Fill-28" fill="#FFFFFF"></path>
                <path d="M66.2632,185.7227 L65.1689,185.7227 L27.3745,185.7227 L27.3745,190.4609 L66.2632,190.4609 L66.2632,185.7227 L66.2632,185.7227 Z" id="Fill-29" fill="#FFFFFF"></path>
                <path d="M132.8735,205.5308 L136.8643,207.0557 L268.5264,125.6104 L268.5498,113.6797 L132.8735,205.5308 L132.8735,205.5308 Z" id="Fill-30" fill="#FFFFFF"></path>
                <path d="M136.8721,228.7471 L136.8721,233.501 L268.5498,185.1582 L268.5498,172.3984 L136.8721,228.7471 L136.8721,228.7471 Z" id="Fill-31" fill="#FFFFFF"></path>
                <path d="M136.8682,250.541 L136.8643,255.2373 L268.5498,232.8105 L268.5498,220.3105 L136.8682,250.541 L136.8682,250.541 Z" id="Fill-32" fill="#FFFFFF"></path>
                <path d="M116.605,199.3296 L120.5283,200.8296 L268.5498,64.7197 L268.5742,52.4834 L116.605,199.3296 L116.605,199.3296 Z" id="Fill-33" fill="#FFFFFF"></path>
                <path d="M101.9463,193.7495 L105.7319,195.1899 L253.9258,34.8359 L239.7969,34.8359 L101.9463,193.7495 L101.9463,193.7495 Z" id="Fill-34" fill="#FFFFFF"></path>
                <path d="M89.6943,189.0811 L93.2251,190.4268 L208.668,34.0737 L195.1348,34.0737 L89.6943,189.0811 L89.6943,189.0811 Z" id="Fill-35" fill="#FFFFFF"></path>
                <path d="M77.7949,184.5493 L81.3813,185.9209 L169.4912,34.0737 L159.1436,34.0737 L77.7949,184.5493 L77.7949,184.5493 Z" id="Fill-36" fill="#FFFFFF"></path>
                <path d="M40.3882,170.3008 L44.4297,171.8477 L65.8262,35.7983 L59.1226,34.832 L40.3882,170.3008 L40.3882,170.3008 Z" id="Fill-37" fill="#FFFFFF"></path>
                <path d="M53.3018,175.2212 L56.7295,176.5371 L98.4307,34.0737 L91.623,34.0737 L53.3018,175.2212 L53.3018,175.2212 Z" id="Fill-38" fill="#FFFFFF"></path>
                <path d="M65.5913,179.8999 L69.1831,181.2676 L133.5059,34.0737 L124.1606,34.0737 L65.5913,179.8999 L65.5913,179.8999 Z" id="Fill-39" fill="#FFFFFF"></path>
                <path d="M268.5498,64.7197 L59.1958,34.854 L27.4971,34.854 L27.4971,61.2896 L268.5498,113.6797 L268.5498,64.7197 L268.5498,64.7197 Z" id="Fill-40" fill="#D82F32"></path>
                <path d="M268.5498,121.6875 L27.4971,85.4639 L27.4971,108.8027 L222.6045,153.4194 L246.332,274.3369 L268.5498,274.3369 L268.5498,121.6875 L268.5498,121.6875 Z" id="Fill-41" fill="#D82F32"></path>
                <path d="M27.4971,131.0894 L27.4971,147.1411 L159.208,192.3813 L176.6914,274.3369 L190.127,274.3369 L190.127,174.1064 L27.4971,131.0894 L27.4971,131.0894 Z" id="Fill-42" fill="#D82F32"></path>
                <path d="M27.4971,165.3916 L27.4971,177.6494 L116.0376,217.3623 L128.8906,274.3369 L136.8604,274.374 L136.8794,207.0557 L27.4971,165.3916 L27.4971,165.3916 Z" id="Fill-43" fill="#D82F32"></path>
            </g>
        </g>
    </g>
</svg>